<mxfile host="app.diagrams.net" agent="Mozilla/5.0 (Macintosh; Intel Mac OS X 10_15_7) AppleWebKit/537.36 (KHTML, like Gecko) Chrome/136.0.0.0 Safari/537.36" version="27.1.0" pages="2">
  <diagram id="NcWAtR6lVNYsf1mwq6w3" name="landscape">
    <mxGraphModel grid="0" page="1" gridSize="10" guides="1" tooltips="1" connect="1" arrows="1" fold="1" pageScale="1" pageWidth="850" pageHeight="1100" math="0" shadow="0">
      <root>
        <mxCell id="0" />
        <mxCell id="1" parent="0" />
        <mxCell id="nu2sPEa5Om27fK1GL2jq-1" value="" style="childLayout=tableLayout;recursiveResize=0;shadow=0;fillColor=none;strokeColor=#CCCCCC;strokeWidth=1;rounded=0;" vertex="1" parent="1">
          <mxGeometry x="41" y="79" width="958" height="772.75" as="geometry" />
        </mxCell>
        <mxCell id="nu2sPEa5Om27fK1GL2jq-2" value="" style="shape=tableRow;horizontal=0;startSize=0;swimlaneHead=0;swimlaneBody=0;top=0;left=0;bottom=0;right=0;dropTarget=0;collapsible=0;recursiveResize=0;expand=0;fontStyle=0;fillColor=none;strokeColor=#CCCCCC;" vertex="1" parent="nu2sPEa5Om27fK1GL2jq-1">
          <mxGeometry width="958" height="110" as="geometry" />
        </mxCell>
        <mxCell id="nu2sPEa5Om27fK1GL2jq-3" value="&lt;div&gt;&lt;br&gt;&lt;/div&gt;&lt;div&gt;&lt;br&gt;&lt;/div&gt;" style="connectable=0;recursiveResize=0;strokeColor=#FFFFFF;fillColor=none;align=center;whiteSpace=wrap;html=1;" vertex="1" parent="nu2sPEa5Om27fK1GL2jq-2">
          <mxGeometry width="137" height="110" as="geometry">
            <mxRectangle width="137" height="110" as="alternateBounds" />
          </mxGeometry>
        </mxCell>
        <mxCell id="nu2sPEa5Om27fK1GL2jq-4" value="&lt;div&gt;Продажи в сети&lt;/div&gt;&lt;div&gt;отделений&lt;/div&gt;" style="connectable=0;recursiveResize=0;strokeColor=#FFFFFF;fillColor=#E6E6E6;align=center;whiteSpace=wrap;html=1;" vertex="1" parent="nu2sPEa5Om27fK1GL2jq-2">
          <mxGeometry x="137" width="136" height="110" as="geometry">
            <mxRectangle width="136" height="110" as="alternateBounds" />
          </mxGeometry>
        </mxCell>
        <mxCell id="nu2sPEa5Om27fK1GL2jq-64" value="&lt;div&gt;Продажи через&lt;/div&gt;&lt;div&gt;кол-центр&lt;/div&gt;" style="connectable=0;recursiveResize=0;strokeColor=#FFFFFF;fillColor=#E6E6E6;align=center;whiteSpace=wrap;html=1;" vertex="1" parent="nu2sPEa5Om27fK1GL2jq-2">
          <mxGeometry x="273" width="137" height="110" as="geometry">
            <mxRectangle width="137" height="110" as="alternateBounds" />
          </mxGeometry>
        </mxCell>
        <mxCell id="nu2sPEa5Om27fK1GL2jq-5" value="&lt;div&gt;Digital-оповещения&lt;/div&gt;&lt;div&gt;клиентов&lt;/div&gt;" style="connectable=0;recursiveResize=0;strokeColor=#FFFFFF;fillColor=#E6E6E6;align=center;whiteSpace=wrap;html=1;" vertex="1" parent="nu2sPEa5Om27fK1GL2jq-2">
          <mxGeometry x="410" width="137" height="110" as="geometry">
            <mxRectangle width="137" height="110" as="alternateBounds" />
          </mxGeometry>
        </mxCell>
        <mxCell id="nu2sPEa5Om27fK1GL2jq-68" value="&lt;div&gt;Обслуживание&lt;/div&gt;&lt;div&gt;депозитных&lt;/div&gt;&lt;div&gt;процессов&lt;/div&gt;" style="connectable=0;recursiveResize=0;strokeColor=#FFFFFF;fillColor=#E6E6E6;align=center;whiteSpace=wrap;html=1;" vertex="1" parent="nu2sPEa5Om27fK1GL2jq-2">
          <mxGeometry x="547" width="137" height="110" as="geometry">
            <mxRectangle width="137" height="110" as="alternateBounds" />
          </mxGeometry>
        </mxCell>
        <mxCell id="nu2sPEa5Om27fK1GL2jq-121" value="&lt;div&gt;Обслуживание&lt;/div&gt;&lt;div&gt;кредитных&lt;/div&gt;&lt;div&gt;процессов&lt;/div&gt;" style="connectable=0;recursiveResize=0;strokeColor=#FFFFFF;fillColor=#E6E6E6;align=center;whiteSpace=wrap;html=1;" vertex="1" parent="nu2sPEa5Om27fK1GL2jq-2">
          <mxGeometry x="684" width="137" height="110" as="geometry">
            <mxRectangle width="137" height="110" as="alternateBounds" />
          </mxGeometry>
        </mxCell>
        <mxCell id="nu2sPEa5Om27fK1GL2jq-125" value="&lt;div&gt;Управление&lt;/div&gt;&lt;div&gt;договорами&lt;/div&gt;" style="connectable=0;recursiveResize=0;strokeColor=#FFFFFF;fillColor=#E6E6E6;align=center;whiteSpace=wrap;html=1;" vertex="1" parent="nu2sPEa5Om27fK1GL2jq-2">
          <mxGeometry x="821" width="137" height="110" as="geometry">
            <mxRectangle width="137" height="110" as="alternateBounds" />
          </mxGeometry>
        </mxCell>
        <mxCell id="nu2sPEa5Om27fK1GL2jq-14" value="" style="shape=tableRow;horizontal=0;startSize=0;swimlaneHead=0;swimlaneBody=0;top=0;left=0;bottom=0;right=0;dropTarget=0;collapsible=0;recursiveResize=0;expand=0;fontStyle=0;fillColor=none;strokeColor=#CCCCCC;" vertex="1" parent="nu2sPEa5Om27fK1GL2jq-1">
          <mxGeometry y="110" width="958" height="111" as="geometry" />
        </mxCell>
        <mxCell id="nu2sPEa5Om27fK1GL2jq-15" value="&lt;div&gt;Управление&lt;/div&gt;&lt;div&gt;обслуживанием&lt;/div&gt;&lt;div&gt;в сети отделений&lt;/div&gt;" style="connectable=0;recursiveResize=0;strokeColor=#FFFFFF;fillColor=#E6E6E6;align=center;whiteSpace=wrap;html=1;" vertex="1" parent="nu2sPEa5Om27fK1GL2jq-14">
          <mxGeometry width="137" height="111" as="geometry">
            <mxRectangle width="137" height="111" as="alternateBounds" />
          </mxGeometry>
        </mxCell>
        <mxCell id="nu2sPEa5Om27fK1GL2jq-16" value="" style="connectable=0;recursiveResize=0;strokeColor=#E6E6E6;fillColor=none;align=center;whiteSpace=wrap;html=1;strokeWidth=2;" vertex="1" parent="nu2sPEa5Om27fK1GL2jq-14">
          <mxGeometry x="137" width="136" height="111" as="geometry">
            <mxRectangle width="136" height="111" as="alternateBounds" />
          </mxGeometry>
        </mxCell>
        <mxCell id="nu2sPEa5Om27fK1GL2jq-65" style="connectable=0;recursiveResize=0;strokeColor=#E6E6E6;fillColor=none;align=center;whiteSpace=wrap;html=1;strokeWidth=2;" vertex="1" parent="nu2sPEa5Om27fK1GL2jq-14">
          <mxGeometry x="273" width="137" height="111" as="geometry">
            <mxRectangle width="137" height="111" as="alternateBounds" />
          </mxGeometry>
        </mxCell>
        <mxCell id="nu2sPEa5Om27fK1GL2jq-17" value="" style="connectable=0;recursiveResize=0;strokeColor=#E6E6E6;fillColor=none;align=center;whiteSpace=wrap;html=1;strokeWidth=2;" vertex="1" parent="nu2sPEa5Om27fK1GL2jq-14">
          <mxGeometry x="410" width="137" height="111" as="geometry">
            <mxRectangle width="137" height="111" as="alternateBounds" />
          </mxGeometry>
        </mxCell>
        <mxCell id="nu2sPEa5Om27fK1GL2jq-69" style="connectable=0;recursiveResize=0;strokeColor=#E6E6E6;fillColor=none;align=center;whiteSpace=wrap;html=1;strokeWidth=2;" vertex="1" parent="nu2sPEa5Om27fK1GL2jq-14">
          <mxGeometry x="547" width="137" height="111" as="geometry">
            <mxRectangle width="137" height="111" as="alternateBounds" />
          </mxGeometry>
        </mxCell>
        <mxCell id="nu2sPEa5Om27fK1GL2jq-122" style="connectable=0;recursiveResize=0;strokeColor=#E6E6E6;fillColor=none;align=center;whiteSpace=wrap;html=1;strokeWidth=2;" vertex="1" parent="nu2sPEa5Om27fK1GL2jq-14">
          <mxGeometry x="684" width="137" height="111" as="geometry">
            <mxRectangle width="137" height="111" as="alternateBounds" />
          </mxGeometry>
        </mxCell>
        <mxCell id="nu2sPEa5Om27fK1GL2jq-126" style="connectable=0;recursiveResize=0;strokeColor=#E6E6E6;fillColor=none;align=center;whiteSpace=wrap;html=1;strokeWidth=2;" vertex="1" parent="nu2sPEa5Om27fK1GL2jq-14">
          <mxGeometry x="821" width="137" height="111" as="geometry">
            <mxRectangle width="137" height="111" as="alternateBounds" />
          </mxGeometry>
        </mxCell>
        <mxCell id="nu2sPEa5Om27fK1GL2jq-6" style="shape=tableRow;horizontal=0;startSize=0;swimlaneHead=0;swimlaneBody=0;top=0;left=0;bottom=0;right=0;dropTarget=0;collapsible=0;recursiveResize=0;expand=0;fontStyle=0;fillColor=none;strokeColor=#CCCCCC;" vertex="1" parent="nu2sPEa5Om27fK1GL2jq-1">
          <mxGeometry y="221" width="958" height="108" as="geometry" />
        </mxCell>
        <mxCell id="nu2sPEa5Om27fK1GL2jq-7" value="Кол-центр" style="connectable=0;recursiveResize=0;strokeColor=#FFFFFF;fillColor=#E6E6E6;align=center;whiteSpace=wrap;html=1;" vertex="1" parent="nu2sPEa5Om27fK1GL2jq-6">
          <mxGeometry width="137" height="108" as="geometry">
            <mxRectangle width="137" height="108" as="alternateBounds" />
          </mxGeometry>
        </mxCell>
        <mxCell id="nu2sPEa5Om27fK1GL2jq-8" value="" style="connectable=0;recursiveResize=0;strokeColor=#E6E6E6;fillColor=none;align=center;whiteSpace=wrap;html=1;strokeWidth=2;" vertex="1" parent="nu2sPEa5Om27fK1GL2jq-6">
          <mxGeometry x="137" width="136" height="108" as="geometry">
            <mxRectangle width="136" height="108" as="alternateBounds" />
          </mxGeometry>
        </mxCell>
        <mxCell id="nu2sPEa5Om27fK1GL2jq-66" style="connectable=0;recursiveResize=0;strokeColor=#E6E6E6;fillColor=none;align=center;whiteSpace=wrap;html=1;strokeWidth=2;" vertex="1" parent="nu2sPEa5Om27fK1GL2jq-6">
          <mxGeometry x="273" width="137" height="108" as="geometry">
            <mxRectangle width="137" height="108" as="alternateBounds" />
          </mxGeometry>
        </mxCell>
        <mxCell id="nu2sPEa5Om27fK1GL2jq-9" value="" style="connectable=0;recursiveResize=0;strokeColor=#E6E6E6;fillColor=none;align=center;whiteSpace=wrap;html=1;strokeWidth=2;" vertex="1" parent="nu2sPEa5Om27fK1GL2jq-6">
          <mxGeometry x="410" width="137" height="108" as="geometry">
            <mxRectangle width="137" height="108" as="alternateBounds" />
          </mxGeometry>
        </mxCell>
        <mxCell id="nu2sPEa5Om27fK1GL2jq-70" style="connectable=0;recursiveResize=0;strokeColor=#E6E6E6;fillColor=none;align=center;whiteSpace=wrap;html=1;strokeWidth=2;" vertex="1" parent="nu2sPEa5Om27fK1GL2jq-6">
          <mxGeometry x="547" width="137" height="108" as="geometry">
            <mxRectangle width="137" height="108" as="alternateBounds" />
          </mxGeometry>
        </mxCell>
        <mxCell id="nu2sPEa5Om27fK1GL2jq-123" style="connectable=0;recursiveResize=0;strokeColor=#E6E6E6;fillColor=none;align=center;whiteSpace=wrap;html=1;strokeWidth=2;" vertex="1" parent="nu2sPEa5Om27fK1GL2jq-6">
          <mxGeometry x="684" width="137" height="108" as="geometry">
            <mxRectangle width="137" height="108" as="alternateBounds" />
          </mxGeometry>
        </mxCell>
        <mxCell id="nu2sPEa5Om27fK1GL2jq-127" style="connectable=0;recursiveResize=0;strokeColor=#E6E6E6;fillColor=none;align=center;whiteSpace=wrap;html=1;strokeWidth=2;" vertex="1" parent="nu2sPEa5Om27fK1GL2jq-6">
          <mxGeometry x="821" width="137" height="108" as="geometry">
            <mxRectangle width="137" height="108" as="alternateBounds" />
          </mxGeometry>
        </mxCell>
        <mxCell id="nu2sPEa5Om27fK1GL2jq-10" style="shape=tableRow;horizontal=0;startSize=0;swimlaneHead=0;swimlaneBody=0;top=0;left=0;bottom=0;right=0;dropTarget=0;collapsible=0;recursiveResize=0;expand=0;fontStyle=0;fillColor=none;strokeColor=#CCCCCC;" vertex="1" parent="nu2sPEa5Om27fK1GL2jq-1">
          <mxGeometry y="329" width="958" height="111" as="geometry" />
        </mxCell>
        <mxCell id="nu2sPEa5Om27fK1GL2jq-11" value="IT-отдел" style="connectable=0;recursiveResize=0;strokeColor=#FFFFFF;fillColor=#E6E6E6;align=center;whiteSpace=wrap;html=1;" vertex="1" parent="nu2sPEa5Om27fK1GL2jq-10">
          <mxGeometry width="137" height="111" as="geometry">
            <mxRectangle width="137" height="111" as="alternateBounds" />
          </mxGeometry>
        </mxCell>
        <mxCell id="nu2sPEa5Om27fK1GL2jq-12" value="" style="connectable=0;recursiveResize=0;strokeColor=#E6E6E6;fillColor=none;align=center;whiteSpace=wrap;html=1;strokeWidth=2;" vertex="1" parent="nu2sPEa5Om27fK1GL2jq-10">
          <mxGeometry x="137" width="136" height="111" as="geometry">
            <mxRectangle width="136" height="111" as="alternateBounds" />
          </mxGeometry>
        </mxCell>
        <mxCell id="nu2sPEa5Om27fK1GL2jq-67" style="connectable=0;recursiveResize=0;strokeColor=#E6E6E6;fillColor=none;align=center;whiteSpace=wrap;html=1;strokeWidth=2;" vertex="1" parent="nu2sPEa5Om27fK1GL2jq-10">
          <mxGeometry x="273" width="137" height="111" as="geometry">
            <mxRectangle width="137" height="111" as="alternateBounds" />
          </mxGeometry>
        </mxCell>
        <mxCell id="nu2sPEa5Om27fK1GL2jq-13" value="" style="connectable=0;recursiveResize=0;strokeColor=#E6E6E6;fillColor=none;align=center;whiteSpace=wrap;html=1;strokeWidth=2;" vertex="1" parent="nu2sPEa5Om27fK1GL2jq-10">
          <mxGeometry x="410" width="137" height="111" as="geometry">
            <mxRectangle width="137" height="111" as="alternateBounds" />
          </mxGeometry>
        </mxCell>
        <mxCell id="nu2sPEa5Om27fK1GL2jq-124" style="connectable=0;recursiveResize=0;strokeColor=#E6E6E6;fillColor=none;align=center;whiteSpace=wrap;html=1;strokeWidth=2;" vertex="1" parent="nu2sPEa5Om27fK1GL2jq-10">
          <mxGeometry x="547" width="137" height="111" as="geometry">
            <mxRectangle width="137" height="111" as="alternateBounds" />
          </mxGeometry>
        </mxCell>
        <mxCell id="nu2sPEa5Om27fK1GL2jq-128" style="connectable=0;recursiveResize=0;strokeColor=#E6E6E6;fillColor=none;align=center;whiteSpace=wrap;html=1;strokeWidth=2;" vertex="1" parent="nu2sPEa5Om27fK1GL2jq-10">
          <mxGeometry x="684" width="137" height="111" as="geometry">
            <mxRectangle width="137" height="111" as="alternateBounds" />
          </mxGeometry>
        </mxCell>
        <mxCell id="nu2sPEa5Om27fK1GL2jq-71" style="connectable=0;recursiveResize=0;strokeColor=#E6E6E6;fillColor=none;align=center;whiteSpace=wrap;html=1;strokeWidth=2;" vertex="1" parent="nu2sPEa5Om27fK1GL2jq-10">
          <mxGeometry x="821" width="137" height="111" as="geometry">
            <mxRectangle width="137" height="111" as="alternateBounds" />
          </mxGeometry>
        </mxCell>
        <mxCell id="u_pmDBl9f2cwLq1DD_BG-1" style="shape=tableRow;horizontal=0;startSize=0;swimlaneHead=0;swimlaneBody=0;top=0;left=0;bottom=0;right=0;dropTarget=0;collapsible=0;recursiveResize=0;expand=0;fontStyle=0;fillColor=none;strokeColor=#CCCCCC;" vertex="1" parent="nu2sPEa5Om27fK1GL2jq-1">
          <mxGeometry y="440" width="958" height="111" as="geometry" />
        </mxCell>
        <mxCell id="u_pmDBl9f2cwLq1DD_BG-2" value="&lt;div&gt;Управление&lt;/div&gt;&lt;div&gt;обслуживанием&lt;/div&gt;&lt;div&gt;депозитных&lt;/div&gt;&lt;div&gt;продуктов&lt;/div&gt;" style="connectable=0;recursiveResize=0;strokeColor=#FFFFFF;fillColor=#E6E6E6;align=center;whiteSpace=wrap;html=1;" vertex="1" parent="u_pmDBl9f2cwLq1DD_BG-1">
          <mxGeometry width="137" height="111" as="geometry">
            <mxRectangle width="137" height="111" as="alternateBounds" />
          </mxGeometry>
        </mxCell>
        <mxCell id="u_pmDBl9f2cwLq1DD_BG-3" style="connectable=0;recursiveResize=0;strokeColor=#E6E6E6;fillColor=none;align=center;whiteSpace=wrap;html=1;strokeWidth=2;" vertex="1" parent="u_pmDBl9f2cwLq1DD_BG-1">
          <mxGeometry x="137" width="136" height="111" as="geometry">
            <mxRectangle width="136" height="111" as="alternateBounds" />
          </mxGeometry>
        </mxCell>
        <mxCell id="u_pmDBl9f2cwLq1DD_BG-4" style="connectable=0;recursiveResize=0;strokeColor=#E6E6E6;fillColor=none;align=center;whiteSpace=wrap;html=1;strokeWidth=2;" vertex="1" parent="u_pmDBl9f2cwLq1DD_BG-1">
          <mxGeometry x="273" width="137" height="111" as="geometry">
            <mxRectangle width="137" height="111" as="alternateBounds" />
          </mxGeometry>
        </mxCell>
        <mxCell id="u_pmDBl9f2cwLq1DD_BG-5" style="connectable=0;recursiveResize=0;strokeColor=#E6E6E6;fillColor=none;align=center;whiteSpace=wrap;html=1;strokeWidth=2;" vertex="1" parent="u_pmDBl9f2cwLq1DD_BG-1">
          <mxGeometry x="410" width="137" height="111" as="geometry">
            <mxRectangle width="137" height="111" as="alternateBounds" />
          </mxGeometry>
        </mxCell>
        <mxCell id="u_pmDBl9f2cwLq1DD_BG-6" style="connectable=0;recursiveResize=0;strokeColor=#E6E6E6;fillColor=none;align=center;whiteSpace=wrap;html=1;strokeWidth=2;" vertex="1" parent="u_pmDBl9f2cwLq1DD_BG-1">
          <mxGeometry x="547" width="137" height="111" as="geometry">
            <mxRectangle width="137" height="111" as="alternateBounds" />
          </mxGeometry>
        </mxCell>
        <mxCell id="u_pmDBl9f2cwLq1DD_BG-7" style="connectable=0;recursiveResize=0;strokeColor=#E6E6E6;fillColor=none;align=center;whiteSpace=wrap;html=1;strokeWidth=2;" vertex="1" parent="u_pmDBl9f2cwLq1DD_BG-1">
          <mxGeometry x="684" width="137" height="111" as="geometry">
            <mxRectangle width="137" height="111" as="alternateBounds" />
          </mxGeometry>
        </mxCell>
        <mxCell id="u_pmDBl9f2cwLq1DD_BG-8" style="connectable=0;recursiveResize=0;strokeColor=#E6E6E6;fillColor=none;align=center;whiteSpace=wrap;html=1;strokeWidth=2;" vertex="1" parent="u_pmDBl9f2cwLq1DD_BG-1">
          <mxGeometry x="821" width="137" height="111" as="geometry">
            <mxRectangle width="137" height="111" as="alternateBounds" />
          </mxGeometry>
        </mxCell>
        <mxCell id="u_pmDBl9f2cwLq1DD_BG-9" style="shape=tableRow;horizontal=0;startSize=0;swimlaneHead=0;swimlaneBody=0;top=0;left=0;bottom=0;right=0;dropTarget=0;collapsible=0;recursiveResize=0;expand=0;fontStyle=0;fillColor=none;strokeColor=#CCCCCC;" vertex="1" parent="nu2sPEa5Om27fK1GL2jq-1">
          <mxGeometry y="551" width="958" height="111" as="geometry" />
        </mxCell>
        <mxCell id="u_pmDBl9f2cwLq1DD_BG-10" value="&lt;div&gt;Управление&lt;/div&gt;&lt;div&gt;обслуживанием&lt;/div&gt;&lt;div&gt;кредитных&lt;/div&gt;&lt;div&gt;продуктов&lt;/div&gt;" style="connectable=0;recursiveResize=0;strokeColor=#FFFFFF;fillColor=#E6E6E6;align=center;whiteSpace=wrap;html=1;" vertex="1" parent="u_pmDBl9f2cwLq1DD_BG-9">
          <mxGeometry width="137" height="111" as="geometry">
            <mxRectangle width="137" height="111" as="alternateBounds" />
          </mxGeometry>
        </mxCell>
        <mxCell id="u_pmDBl9f2cwLq1DD_BG-11" style="connectable=0;recursiveResize=0;strokeColor=#E6E6E6;fillColor=none;align=center;whiteSpace=wrap;html=1;strokeWidth=2;" vertex="1" parent="u_pmDBl9f2cwLq1DD_BG-9">
          <mxGeometry x="137" width="136" height="111" as="geometry">
            <mxRectangle width="136" height="111" as="alternateBounds" />
          </mxGeometry>
        </mxCell>
        <mxCell id="u_pmDBl9f2cwLq1DD_BG-12" style="connectable=0;recursiveResize=0;strokeColor=#E6E6E6;fillColor=none;align=center;whiteSpace=wrap;html=1;strokeWidth=2;" vertex="1" parent="u_pmDBl9f2cwLq1DD_BG-9">
          <mxGeometry x="273" width="137" height="111" as="geometry">
            <mxRectangle width="137" height="111" as="alternateBounds" />
          </mxGeometry>
        </mxCell>
        <mxCell id="u_pmDBl9f2cwLq1DD_BG-13" style="connectable=0;recursiveResize=0;strokeColor=#E6E6E6;fillColor=none;align=center;whiteSpace=wrap;html=1;strokeWidth=2;" vertex="1" parent="u_pmDBl9f2cwLq1DD_BG-9">
          <mxGeometry x="410" width="137" height="111" as="geometry">
            <mxRectangle width="137" height="111" as="alternateBounds" />
          </mxGeometry>
        </mxCell>
        <mxCell id="u_pmDBl9f2cwLq1DD_BG-14" style="connectable=0;recursiveResize=0;strokeColor=#E6E6E6;fillColor=none;align=center;whiteSpace=wrap;html=1;strokeWidth=2;" vertex="1" parent="u_pmDBl9f2cwLq1DD_BG-9">
          <mxGeometry x="547" width="137" height="111" as="geometry">
            <mxRectangle width="137" height="111" as="alternateBounds" />
          </mxGeometry>
        </mxCell>
        <mxCell id="u_pmDBl9f2cwLq1DD_BG-15" style="connectable=0;recursiveResize=0;strokeColor=#E6E6E6;fillColor=none;align=center;whiteSpace=wrap;html=1;strokeWidth=2;" vertex="1" parent="u_pmDBl9f2cwLq1DD_BG-9">
          <mxGeometry x="684" width="137" height="111" as="geometry">
            <mxRectangle width="137" height="111" as="alternateBounds" />
          </mxGeometry>
        </mxCell>
        <mxCell id="u_pmDBl9f2cwLq1DD_BG-16" style="connectable=0;recursiveResize=0;strokeColor=#E6E6E6;fillColor=none;align=center;whiteSpace=wrap;html=1;strokeWidth=2;" vertex="1" parent="u_pmDBl9f2cwLq1DD_BG-9">
          <mxGeometry x="821" width="137" height="111" as="geometry">
            <mxRectangle width="137" height="111" as="alternateBounds" />
          </mxGeometry>
        </mxCell>
        <mxCell id="u_pmDBl9f2cwLq1DD_BG-17" style="shape=tableRow;horizontal=0;startSize=0;swimlaneHead=0;swimlaneBody=0;top=0;left=0;bottom=0;right=0;dropTarget=0;collapsible=0;recursiveResize=0;expand=0;fontStyle=0;fillColor=none;strokeColor=#CCCCCC;" vertex="1" parent="nu2sPEa5Om27fK1GL2jq-1">
          <mxGeometry y="662" width="958" height="111" as="geometry" />
        </mxCell>
        <mxCell id="u_pmDBl9f2cwLq1DD_BG-18" value="&lt;div&gt;Команда цифровой&lt;/div&gt;&lt;div&gt;трансформации&lt;/div&gt;&lt;div&gt;розничного&lt;/div&gt;&lt;div&gt;бизнеса&lt;/div&gt;" style="connectable=0;recursiveResize=0;strokeColor=#FFFFFF;fillColor=#E6E6E6;align=center;whiteSpace=wrap;html=1;" vertex="1" parent="u_pmDBl9f2cwLq1DD_BG-17">
          <mxGeometry width="137" height="111" as="geometry">
            <mxRectangle width="137" height="111" as="alternateBounds" />
          </mxGeometry>
        </mxCell>
        <mxCell id="u_pmDBl9f2cwLq1DD_BG-19" style="connectable=0;recursiveResize=0;strokeColor=#E6E6E6;fillColor=none;align=center;whiteSpace=wrap;html=1;strokeWidth=2;" vertex="1" parent="u_pmDBl9f2cwLq1DD_BG-17">
          <mxGeometry x="137" width="136" height="111" as="geometry">
            <mxRectangle width="136" height="111" as="alternateBounds" />
          </mxGeometry>
        </mxCell>
        <mxCell id="u_pmDBl9f2cwLq1DD_BG-20" style="connectable=0;recursiveResize=0;strokeColor=#E6E6E6;fillColor=none;align=center;whiteSpace=wrap;html=1;strokeWidth=2;" vertex="1" parent="u_pmDBl9f2cwLq1DD_BG-17">
          <mxGeometry x="273" width="137" height="111" as="geometry">
            <mxRectangle width="137" height="111" as="alternateBounds" />
          </mxGeometry>
        </mxCell>
        <mxCell id="u_pmDBl9f2cwLq1DD_BG-21" style="connectable=0;recursiveResize=0;strokeColor=#E6E6E6;fillColor=none;align=center;whiteSpace=wrap;html=1;strokeWidth=2;" vertex="1" parent="u_pmDBl9f2cwLq1DD_BG-17">
          <mxGeometry x="410" width="137" height="111" as="geometry">
            <mxRectangle width="137" height="111" as="alternateBounds" />
          </mxGeometry>
        </mxCell>
        <mxCell id="u_pmDBl9f2cwLq1DD_BG-22" style="connectable=0;recursiveResize=0;strokeColor=#E6E6E6;fillColor=none;align=center;whiteSpace=wrap;html=1;strokeWidth=2;" vertex="1" parent="u_pmDBl9f2cwLq1DD_BG-17">
          <mxGeometry x="547" width="137" height="111" as="geometry">
            <mxRectangle width="137" height="111" as="alternateBounds" />
          </mxGeometry>
        </mxCell>
        <mxCell id="u_pmDBl9f2cwLq1DD_BG-23" style="connectable=0;recursiveResize=0;strokeColor=#E6E6E6;fillColor=none;align=center;whiteSpace=wrap;html=1;strokeWidth=2;" vertex="1" parent="u_pmDBl9f2cwLq1DD_BG-17">
          <mxGeometry x="684" width="137" height="111" as="geometry">
            <mxRectangle width="137" height="111" as="alternateBounds" />
          </mxGeometry>
        </mxCell>
        <mxCell id="u_pmDBl9f2cwLq1DD_BG-24" style="connectable=0;recursiveResize=0;strokeColor=#E6E6E6;fillColor=none;align=center;whiteSpace=wrap;html=1;strokeWidth=2;" vertex="1" parent="u_pmDBl9f2cwLq1DD_BG-17">
          <mxGeometry x="821" width="137" height="111" as="geometry">
            <mxRectangle width="137" height="111" as="alternateBounds" />
          </mxGeometry>
        </mxCell>
        <mxCell id="JzDIZAaAx2z8o3nj612C-1" value="АБС" style="rounded=1;whiteSpace=wrap;html=1;fillColor=#dae8fc;strokeColor=#6c8ebf;" vertex="1" parent="1">
          <mxGeometry x="188" y="257" width="802" height="31" as="geometry" />
        </mxCell>
        <mxCell id="-kI_O4yj6inN3po1rEHL-2" value="АБС" style="rounded=1;whiteSpace=wrap;html=1;fillColor=#dae8fc;strokeColor=#6c8ebf;" vertex="1" parent="1">
          <mxGeometry x="325" y="306" width="114" height="45" as="geometry" />
        </mxCell>
        <mxCell id="-kI_O4yj6inN3po1rEHL-7" value="АБС" style="rounded=1;whiteSpace=wrap;html=1;fillColor=#dae8fc;strokeColor=#6c8ebf;" vertex="1" parent="1">
          <mxGeometry x="598" y="309" width="254" height="90" as="geometry" />
        </mxCell>
        <mxCell id="Ps80dyEuBYuBh9M-0EVf-1" value="&lt;span style=&quot;box-sizing: inherit; color: rgba(0, 0, 0, 0.85); font-family: &amp;quot;YS Text&amp;quot;, sans-serif; text-align: left; white-space-collapse: preserve-breaks;&quot;&gt;&lt;font style=&quot;&quot;&gt;Интернет-банк&lt;/font&gt;&lt;/span&gt;" style="rounded=1;whiteSpace=wrap;html=1;fillColor=#dae8fc;strokeColor=#6c8ebf;" vertex="1" parent="1">
          <mxGeometry x="462" y="418" width="115" height="25" as="geometry" />
        </mxCell>
        <mxCell id="Ps80dyEuBYuBh9M-0EVf-2" value="&lt;p style=&quot;margin: 0px; font-variant-numeric: normal; font-variant-east-asian: normal; font-variant-alternates: normal; font-size-adjust: none; font-kerning: auto; font-optical-sizing: auto; font-feature-settings: normal; font-variation-settings: normal; font-variant-position: normal; font-variant-emoji: normal; font-stretch: normal; font-size: 13px; line-height: normal; font-family: &amp;quot;Helvetica Neue&amp;quot;;&quot; class=&quot;p1&quot;&gt;Система кол-центра&lt;/p&gt;" style="rounded=1;whiteSpace=wrap;html=1;fillColor=#dae8fc;strokeColor=#6c8ebf;align=center;" vertex="1" parent="1">
          <mxGeometry x="325" y="356" width="114" height="45" as="geometry" />
        </mxCell>
        <mxCell id="Ps80dyEuBYuBh9M-0EVf-4" value="&lt;p style=&quot;margin: 0px; font-variant-numeric: normal; font-variant-east-asian: normal; font-variant-alternates: normal; font-size-adjust: none; font-kerning: auto; font-optical-sizing: auto; font-feature-settings: normal; font-variation-settings: normal; font-variant-position: normal; font-variant-emoji: normal; font-stretch: normal; font-size: 13px; line-height: normal; font-family: &amp;quot;Helvetica Neue&amp;quot;; text-align: start;&quot; class=&quot;p1&quot;&gt;СМС-шлюз&lt;/p&gt;" style="rounded=1;whiteSpace=wrap;html=1;fillColor=#dae8fc;strokeColor=#6c8ebf;" vertex="1" parent="1">
          <mxGeometry x="462" y="451" width="115" height="25" as="geometry" />
        </mxCell>
        <mxCell id="Ps80dyEuBYuBh9M-0EVf-5" style="edgeStyle=orthogonalEdgeStyle;rounded=0;orthogonalLoop=1;jettySize=auto;html=1;exitX=0.5;exitY=1;exitDx=0;exitDy=0;" edge="1" parent="1" source="Ps80dyEuBYuBh9M-0EVf-1" target="Ps80dyEuBYuBh9M-0EVf-1">
          <mxGeometry relative="1" as="geometry" />
        </mxCell>
        <mxCell id="Ps80dyEuBYuBh9M-0EVf-6" value="&lt;p style=&quot;margin: 0px; font-variant-numeric: normal; font-variant-east-asian: normal; font-variant-alternates: normal; font-size-adjust: none; font-kerning: auto; font-optical-sizing: auto; font-feature-settings: normal; font-variation-settings: normal; font-variant-position: normal; font-variant-emoji: normal; font-stretch: normal; font-size: 13px; line-height: normal; font-family: &amp;quot;Helvetica Neue&amp;quot;; text-align: start;&quot; class=&quot;p1&quot;&gt;Сайт&lt;/p&gt;" style="rounded=1;whiteSpace=wrap;html=1;fillColor=#dae8fc;strokeColor=#6c8ebf;" vertex="1" parent="1">
          <mxGeometry x="462" y="483" width="115" height="25" as="geometry" />
        </mxCell>
        <mxCell id="Ps80dyEuBYuBh9M-0EVf-8" value="АБС" style="rounded=1;whiteSpace=wrap;html=1;fillColor=#dae8fc;strokeColor=#6c8ebf;" vertex="1" parent="1">
          <mxGeometry x="596" y="526" width="395" height="25" as="geometry" />
        </mxCell>
        <mxCell id="Ps80dyEuBYuBh9M-0EVf-10" value="Excel" style="rounded=1;whiteSpace=wrap;html=1;fillColor=#dae8fc;strokeColor=#6c8ebf;" vertex="1" parent="1">
          <mxGeometry x="595" y="225" width="260" height="25" as="geometry" />
        </mxCell>
        <mxCell id="Ps80dyEuBYuBh9M-0EVf-11" value="Excel" style="rounded=1;whiteSpace=wrap;html=1;fillColor=#dae8fc;strokeColor=#6c8ebf;" vertex="1" parent="1">
          <mxGeometry x="595" y="559" width="260" height="25" as="geometry" />
        </mxCell>
        <mxCell id="Ps80dyEuBYuBh9M-0EVf-12" value="Email" style="rounded=1;whiteSpace=wrap;html=1;fillColor=#dae8fc;strokeColor=#6c8ebf;" vertex="1" parent="1">
          <mxGeometry x="595" y="193" width="260" height="25" as="geometry" />
        </mxCell>
        <mxCell id="tXgkyWEf55gWPvNu3sIp-1" value="Email" style="rounded=1;whiteSpace=wrap;html=1;fillColor=#dae8fc;strokeColor=#6c8ebf;" vertex="1" parent="1">
          <mxGeometry x="595" y="592" width="260" height="25" as="geometry" />
        </mxCell>
        <mxCell id="tXgkyWEf55gWPvNu3sIp-6" value="АБС" style="rounded=1;whiteSpace=wrap;html=1;fillColor=#dae8fc;strokeColor=#6c8ebf;" vertex="1" parent="1">
          <mxGeometry x="597" y="641" width="395" height="25" as="geometry" />
        </mxCell>
        <mxCell id="tXgkyWEf55gWPvNu3sIp-7" value="Excel" style="rounded=1;whiteSpace=wrap;html=1;fillColor=#dae8fc;strokeColor=#6c8ebf;" vertex="1" parent="1">
          <mxGeometry x="596" y="674" width="260" height="25" as="geometry" />
        </mxCell>
        <mxCell id="tXgkyWEf55gWPvNu3sIp-8" value="Email" style="rounded=1;whiteSpace=wrap;html=1;fillColor=#dae8fc;strokeColor=#6c8ebf;" vertex="1" parent="1">
          <mxGeometry x="596" y="707" width="260" height="25" as="geometry" />
        </mxCell>
      </root>
    </mxGraphModel>
  </diagram>
  <diagram id="ihCI-tE1QXlHJM2auqCa" name="schema">
    <mxGraphModel grid="0" page="1" gridSize="10" guides="1" tooltips="1" connect="1" arrows="1" fold="1" pageScale="1" pageWidth="850" pageHeight="1100" math="0" shadow="0">
      <root>
        <mxCell id="0" />
        <mxCell id="1" parent="0" />
        <mxCell id="Y2-pnjwK3eebaYSUIqyF-35" value="" style="edgeStyle=orthogonalEdgeStyle;rounded=0;orthogonalLoop=1;jettySize=auto;html=1;" edge="1" parent="1" target="N7hfLZ9WAsNdXvMFLSmK-17">
          <mxGeometry relative="1" as="geometry">
            <mxPoint x="60" y="176.5" as="sourcePoint" />
            <mxPoint x="47" y="311" as="targetPoint" />
            <Array as="points">
              <mxPoint x="60" y="304" />
              <mxPoint x="60" y="304" />
            </Array>
          </mxGeometry>
        </mxCell>
        <mxCell id="Y2-pnjwK3eebaYSUIqyF-36" value="Запрашивает ставки" style="edgeLabel;html=1;align=center;verticalAlign=middle;resizable=0;points=[];" connectable="0" vertex="1" parent="Y2-pnjwK3eebaYSUIqyF-35">
          <mxGeometry x="0.2545" y="-1" relative="1" as="geometry">
            <mxPoint x="4" y="-34" as="offset" />
          </mxGeometry>
        </mxCell>
        <mxCell id="N7hfLZ9WAsNdXvMFLSmK-9" value="" style="edgeStyle=orthogonalEdgeStyle;rounded=0;orthogonalLoop=1;jettySize=auto;html=1;entryX=0;entryY=0.25;entryDx=0;entryDy=0;" edge="1" parent="1" source="N7hfLZ9WAsNdXvMFLSmK-14" target="txCP3sQfzH_9Y925FUb7-1">
          <mxGeometry relative="1" as="geometry">
            <mxPoint x="212" y="126.05499999999984" as="targetPoint" />
            <Array as="points">
              <mxPoint x="224" y="126" />
              <mxPoint x="224" y="126" />
            </Array>
          </mxGeometry>
        </mxCell>
        <mxCell id="N7hfLZ9WAsNdXvMFLSmK-10" value="Создает депозит" style="edgeLabel;html=1;align=center;verticalAlign=middle;resizable=0;points=[];" connectable="0" vertex="1" parent="N7hfLZ9WAsNdXvMFLSmK-9">
          <mxGeometry x="-0.7741" relative="1" as="geometry">
            <mxPoint x="31" y="-2" as="offset" />
          </mxGeometry>
        </mxCell>
        <mxCell id="Y2-pnjwK3eebaYSUIqyF-20" value="" style="edgeStyle=orthogonalEdgeStyle;rounded=0;orthogonalLoop=1;jettySize=auto;html=1;entryX=0;entryY=0.5;entryDx=0;entryDy=0;" edge="1" parent="1" source="txCP3sQfzH_9Y925FUb7-1" target="QBpDWXytgkbpgZtEVS22-3">
          <mxGeometry relative="1" as="geometry">
            <mxPoint x="676.5" y="199" as="targetPoint" />
          </mxGeometry>
        </mxCell>
        <mxCell id="Y2-pnjwK3eebaYSUIqyF-21" value="Отправляет оповещение" style="edgeLabel;html=1;align=center;verticalAlign=middle;resizable=0;points=[];" connectable="0" vertex="1" parent="Y2-pnjwK3eebaYSUIqyF-20">
          <mxGeometry x="-0.163" y="2" relative="1" as="geometry">
            <mxPoint as="offset" />
          </mxGeometry>
        </mxCell>
        <mxCell id="txCP3sQfzH_9Y925FUb7-1" value="АБС" style="rounded=1;whiteSpace=wrap;html=1;fillColor=#dae8fc;strokeColor=#6c8ebf;" vertex="1" parent="1">
          <mxGeometry x="363" y="88" width="155" height="152" as="geometry" />
        </mxCell>
        <mxCell id="QBpDWXytgkbpgZtEVS22-1" value="&lt;span style=&quot;box-sizing: inherit; color: rgba(0, 0, 0, 0.85); font-family: &amp;quot;YS Text&amp;quot;, sans-serif; text-align: left; white-space-collapse: preserve-breaks;&quot;&gt;&lt;font style=&quot;&quot;&gt;Интернет-банк&lt;/font&gt;&lt;/span&gt;" style="rounded=1;whiteSpace=wrap;html=1;fillColor=#dae8fc;strokeColor=#6c8ebf;" vertex="1" parent="1">
          <mxGeometry x="280" y="-274.06" width="155" height="30" as="geometry" />
        </mxCell>
        <mxCell id="QBpDWXytgkbpgZtEVS22-2" value="&lt;p style=&quot;margin: 0px; font-variant-numeric: normal; font-variant-east-asian: normal; font-variant-alternates: normal; font-size-adjust: none; font-kerning: auto; font-optical-sizing: auto; font-feature-settings: normal; font-variation-settings: normal; font-variant-position: normal; font-variant-emoji: normal; font-stretch: normal; font-size: 13px; line-height: normal; font-family: &amp;quot;Helvetica Neue&amp;quot;;&quot; class=&quot;p1&quot;&gt;Система кол-центра&lt;/p&gt;" style="rounded=1;whiteSpace=wrap;html=1;fillColor=#dae8fc;strokeColor=#6c8ebf;align=center;" vertex="1" parent="1">
          <mxGeometry x="280" y="-181" width="155" height="30" as="geometry" />
        </mxCell>
        <mxCell id="QBpDWXytgkbpgZtEVS22-3" value="&lt;p style=&quot;margin: 0px; font-variant-numeric: normal; font-variant-east-asian: normal; font-variant-alternates: normal; font-size-adjust: none; font-kerning: auto; font-optical-sizing: auto; font-feature-settings: normal; font-variation-settings: normal; font-variant-position: normal; font-variant-emoji: normal; font-stretch: normal; font-size: 13px; line-height: normal; font-family: &amp;quot;Helvetica Neue&amp;quot;; text-align: start;&quot; class=&quot;p1&quot;&gt;СМС-шлюз&lt;/p&gt;" style="rounded=1;whiteSpace=wrap;html=1;fillColor=#dae8fc;strokeColor=#6c8ebf;" vertex="1" parent="1">
          <mxGeometry x="714" y="146.5" width="155" height="30" as="geometry" />
        </mxCell>
        <mxCell id="QBpDWXytgkbpgZtEVS22-4" value="&lt;p style=&quot;margin: 0px; font-variant-numeric: normal; font-variant-east-asian: normal; font-variant-alternates: normal; font-size-adjust: none; font-kerning: auto; font-optical-sizing: auto; font-feature-settings: normal; font-variation-settings: normal; font-variant-position: normal; font-variant-emoji: normal; font-stretch: normal; font-size: 13px; line-height: normal; font-family: &amp;quot;Helvetica Neue&amp;quot;; text-align: start;&quot; class=&quot;p1&quot;&gt;Сайт&lt;/p&gt;" style="rounded=1;whiteSpace=wrap;html=1;fillColor=#dae8fc;strokeColor=#6c8ebf;" vertex="1" parent="1">
          <mxGeometry x="280" y="-378" width="155" height="30" as="geometry" />
        </mxCell>
        <mxCell id="Y2-pnjwK3eebaYSUIqyF-29" value="" style="edgeStyle=orthogonalEdgeStyle;rounded=0;orthogonalLoop=1;jettySize=auto;html=1;" edge="1" parent="1" source="N7hfLZ9WAsNdXvMFLSmK-18">
          <mxGeometry relative="1" as="geometry">
            <mxPoint x="52" y="387" as="targetPoint" />
            <Array as="points">
              <mxPoint x="52" y="460" />
              <mxPoint x="52" y="460" />
            </Array>
          </mxGeometry>
        </mxCell>
        <mxCell id="Y2-pnjwK3eebaYSUIqyF-30" value="Отправляет ставки" style="edgeLabel;html=1;align=center;verticalAlign=middle;resizable=0;points=[];" connectable="0" vertex="1" parent="Y2-pnjwK3eebaYSUIqyF-29">
          <mxGeometry x="-0.4892" y="-1" relative="1" as="geometry">
            <mxPoint x="-3" y="17" as="offset" />
          </mxGeometry>
        </mxCell>
        <mxCell id="Y2-pnjwK3eebaYSUIqyF-32" value="" style="edgeStyle=orthogonalEdgeStyle;rounded=0;orthogonalLoop=1;jettySize=auto;html=1;entryX=0.5;entryY=1;entryDx=0;entryDy=0;" edge="1" parent="1" source="N7hfLZ9WAsNdXvMFLSmK-17" target="txCP3sQfzH_9Y925FUb7-1">
          <mxGeometry relative="1" as="geometry">
            <mxPoint x="212" y="337.94500000000016" as="targetPoint" />
          </mxGeometry>
        </mxCell>
        <mxCell id="Y2-pnjwK3eebaYSUIqyF-33" value="Обрабатывает заявки" style="edgeLabel;html=1;align=center;verticalAlign=middle;resizable=0;points=[];" connectable="0" vertex="1" parent="Y2-pnjwK3eebaYSUIqyF-32">
          <mxGeometry x="-0.7294" y="-1" relative="1" as="geometry">
            <mxPoint x="41" y="-1" as="offset" />
          </mxGeometry>
        </mxCell>
        <mxCell id="N7hfLZ9WAsNdXvMFLSmK-3" value="" style="edgeStyle=orthogonalEdgeStyle;rounded=0;orthogonalLoop=1;jettySize=auto;html=1;" edge="1" parent="1" source="N7hfLZ9WAsNdXvMFLSmK-17" target="N7hfLZ9WAsNdXvMFLSmK-18">
          <mxGeometry relative="1" as="geometry">
            <mxPoint x="-36.5" y="354" as="sourcePoint" />
            <mxPoint x="-36.5" y="583" as="targetPoint" />
            <Array as="points">
              <mxPoint x="-169" y="354" />
              <mxPoint x="-169" y="583" />
            </Array>
          </mxGeometry>
        </mxCell>
        <mxCell id="N7hfLZ9WAsNdXvMFLSmK-4" value="Согласует специальные ставки" style="edgeLabel;html=1;align=center;verticalAlign=middle;resizable=0;points=[];" connectable="0" vertex="1" parent="N7hfLZ9WAsNdXvMFLSmK-3">
          <mxGeometry x="-0.5748" y="-1" relative="1" as="geometry">
            <mxPoint x="38" y="1" as="offset" />
          </mxGeometry>
        </mxCell>
        <mxCell id="Y2-pnjwK3eebaYSUIqyF-23" value="" style="edgeStyle=orthogonalEdgeStyle;rounded=0;orthogonalLoop=1;jettySize=auto;html=1;entryX=0;entryY=0.5;entryDx=0;entryDy=0;" edge="1" parent="1" source="N7hfLZ9WAsNdXvMFLSmK-11" target="QBpDWXytgkbpgZtEVS22-2">
          <mxGeometry relative="1" as="geometry">
            <mxPoint x="280" y="-165" as="targetPoint" />
            <Array as="points">
              <mxPoint x="64" y="-165" />
            </Array>
          </mxGeometry>
        </mxCell>
        <mxCell id="Y2-pnjwK3eebaYSUIqyF-24" value="Обрабатывает звонки" style="edgeLabel;html=1;align=center;verticalAlign=middle;resizable=0;points=[];" connectable="0" vertex="1" parent="Y2-pnjwK3eebaYSUIqyF-23">
          <mxGeometry x="-0.2738" y="-3" relative="1" as="geometry">
            <mxPoint x="-1" y="-3" as="offset" />
          </mxGeometry>
        </mxCell>
        <mxCell id="N7hfLZ9WAsNdXvMFLSmK-12" value="" style="edgeStyle=orthogonalEdgeStyle;rounded=0;orthogonalLoop=1;jettySize=auto;html=1;" edge="1" parent="1" source="N7hfLZ9WAsNdXvMFLSmK-11" target="N7hfLZ9WAsNdXvMFLSmK-14">
          <mxGeometry relative="1" as="geometry">
            <Array as="points">
              <mxPoint x="63" y="49" />
              <mxPoint x="63" y="49" />
            </Array>
          </mxGeometry>
        </mxCell>
        <mxCell id="Y2-pnjwK3eebaYSUIqyF-2" value="" style="edgeStyle=orthogonalEdgeStyle;rounded=0;orthogonalLoop=1;jettySize=auto;html=1;" edge="1" parent="1" source="N7hfLZ9WAsNdXvMFLSmK-16" target="N7hfLZ9WAsNdXvMFLSmK-14">
          <mxGeometry relative="1" as="geometry">
            <mxPoint x="176" y="-143" as="targetPoint" />
            <Array as="points">
              <mxPoint x="-279" y="-262" />
              <mxPoint x="-279" y="130" />
            </Array>
          </mxGeometry>
        </mxCell>
        <mxCell id="Y2-pnjwK3eebaYSUIqyF-4" value="Посещает банк" style="edgeLabel;html=1;align=center;verticalAlign=middle;resizable=0;points=[];" connectable="0" vertex="1" parent="Y2-pnjwK3eebaYSUIqyF-2">
          <mxGeometry x="-0.0315" y="1" relative="1" as="geometry">
            <mxPoint x="-3" y="-306" as="offset" />
          </mxGeometry>
        </mxCell>
        <mxCell id="Y2-pnjwK3eebaYSUIqyF-6" value="" style="edgeStyle=orthogonalEdgeStyle;rounded=0;orthogonalLoop=1;jettySize=auto;html=1;" edge="1" parent="1" source="N7hfLZ9WAsNdXvMFLSmK-16" target="N7hfLZ9WAsNdXvMFLSmK-11">
          <mxGeometry relative="1" as="geometry">
            <mxPoint x="-243" y="-254" as="sourcePoint" />
            <mxPoint x="57" y="-115" as="targetPoint" />
            <Array as="points">
              <mxPoint x="-184" y="-70" />
            </Array>
          </mxGeometry>
        </mxCell>
        <mxCell id="Y2-pnjwK3eebaYSUIqyF-8" value="Звонит в кол-центр" style="edgeLabel;html=1;align=center;verticalAlign=middle;resizable=0;points=[];" connectable="0" vertex="1" parent="Y2-pnjwK3eebaYSUIqyF-6">
          <mxGeometry x="-0.2308" relative="1" as="geometry">
            <mxPoint y="-72" as="offset" />
          </mxGeometry>
        </mxCell>
        <mxCell id="Y2-pnjwK3eebaYSUIqyF-11" value="" style="edgeStyle=orthogonalEdgeStyle;rounded=0;orthogonalLoop=1;jettySize=auto;html=1;entryX=0;entryY=0.5;entryDx=0;entryDy=0;" edge="1" parent="1" source="N7hfLZ9WAsNdXvMFLSmK-16" target="QBpDWXytgkbpgZtEVS22-1">
          <mxGeometry relative="1" as="geometry">
            <mxPoint x="287" y="-110.99499999999989" as="targetPoint" />
          </mxGeometry>
        </mxCell>
        <mxCell id="Y2-pnjwK3eebaYSUIqyF-12" value="Проводит платежи, открывает счета" style="edgeLabel;html=1;align=center;verticalAlign=middle;resizable=0;points=[];" connectable="0" vertex="1" parent="Y2-pnjwK3eebaYSUIqyF-11">
          <mxGeometry x="-0.6763" y="3" relative="1" as="geometry">
            <mxPoint x="35" y="3" as="offset" />
          </mxGeometry>
        </mxCell>
        <mxCell id="Y2-pnjwK3eebaYSUIqyF-14" value="" style="edgeStyle=orthogonalEdgeStyle;rounded=0;orthogonalLoop=1;jettySize=auto;html=1;entryX=0;entryY=0.5;entryDx=0;entryDy=0;" edge="1" parent="1" source="N7hfLZ9WAsNdXvMFLSmK-16" target="QBpDWXytgkbpgZtEVS22-4">
          <mxGeometry relative="1" as="geometry">
            <mxPoint x="-182" y="-310" as="sourcePoint" />
            <mxPoint x="239" y="-262" as="targetPoint" />
            <Array as="points">
              <mxPoint x="-172" y="-364" />
            </Array>
          </mxGeometry>
        </mxCell>
        <mxCell id="Y2-pnjwK3eebaYSUIqyF-15" value="Просматривает маркетинговую информацию" style="edgeLabel;html=1;align=center;verticalAlign=middle;resizable=0;points=[];" connectable="0" vertex="1" parent="Y2-pnjwK3eebaYSUIqyF-14">
          <mxGeometry x="-0.2443" y="2" relative="1" as="geometry">
            <mxPoint as="offset" />
          </mxGeometry>
        </mxCell>
        <mxCell id="Y2-pnjwK3eebaYSUIqyF-17" value="" style="edgeStyle=orthogonalEdgeStyle;rounded=0;orthogonalLoop=1;jettySize=auto;html=1;entryX=0.5;entryY=0;entryDx=0;entryDy=0;" edge="1" parent="1" source="N7hfLZ9WAsNdXvMFLSmK-11" target="txCP3sQfzH_9Y925FUb7-1">
          <mxGeometry relative="1" as="geometry">
            <mxPoint x="62" y="412.05499999999984" as="targetPoint" />
          </mxGeometry>
        </mxCell>
        <mxCell id="Y2-pnjwK3eebaYSUIqyF-18" value="Заводит обращение" style="edgeLabel;html=1;align=center;verticalAlign=middle;resizable=0;points=[];" connectable="0" vertex="1" parent="Y2-pnjwK3eebaYSUIqyF-17">
          <mxGeometry x="-0.7983" relative="1" as="geometry">
            <mxPoint x="42" as="offset" />
          </mxGeometry>
        </mxCell>
        <mxCell id="N7hfLZ9WAsNdXvMFLSmK-6" value="" style="edgeStyle=orthogonalEdgeStyle;rounded=0;orthogonalLoop=1;jettySize=auto;html=1;entryX=0.75;entryY=1;entryDx=0;entryDy=0;" edge="1" parent="1" source="N7hfLZ9WAsNdXvMFLSmK-18" target="txCP3sQfzH_9Y925FUb7-1">
          <mxGeometry relative="1" as="geometry">
            <mxPoint x="215" y="575.9450000000002" as="targetPoint" />
          </mxGeometry>
        </mxCell>
        <mxCell id="N7hfLZ9WAsNdXvMFLSmK-7" value="Анализирует кредитные риски" style="edgeLabel;html=1;align=center;verticalAlign=middle;resizable=0;points=[];" connectable="0" vertex="1" parent="N7hfLZ9WAsNdXvMFLSmK-6">
          <mxGeometry x="-0.8118" relative="1" as="geometry">
            <mxPoint x="28" as="offset" />
          </mxGeometry>
        </mxCell>
        <mxCell id="N7hfLZ9WAsNdXvMFLSmK-11" value="&lt;span style=&quot;background-color: light-dark(#ffffff, var(--ge-dark-color, #121212));&quot;&gt;&lt;b&gt;&lt;font style=&quot;font-size: 13px;&quot;&gt;Сотрудник кол-центра&lt;/font&gt;&lt;/b&gt;&lt;/span&gt;&lt;div&gt;&lt;br style=&quot;background-color: rgb(255, 255, 255);&quot;&gt;&lt;/div&gt;" style="sketch=0;pointerEvents=1;shadow=0;dashed=0;html=1;strokeColor=none;fillColor=#505050;labelPosition=center;verticalLabelPosition=bottom;verticalAlign=top;outlineConnect=0;align=center;shape=mxgraph.office.users.call_center_agent;" vertex="1" parent="1">
          <mxGeometry x="28" y="-113" width="70" height="80" as="geometry" />
        </mxCell>
        <mxCell id="N7hfLZ9WAsNdXvMFLSmK-20" value="" style="edgeStyle=orthogonalEdgeStyle;rounded=0;orthogonalLoop=1;jettySize=auto;html=1;entryX=1;entryY=0.5;entryDx=0;entryDy=0;" edge="1" parent="1" source="N7hfLZ9WAsNdXvMFLSmK-13" target="QBpDWXytgkbpgZtEVS22-4">
          <mxGeometry relative="1" as="geometry">
            <mxPoint x="728" y="-274" as="sourcePoint" />
            <mxPoint x="727.5" y="-368.05999999999995" as="targetPoint" />
            <Array as="points">
              <mxPoint x="783" y="-363" />
            </Array>
          </mxGeometry>
        </mxCell>
        <mxCell id="N7hfLZ9WAsNdXvMFLSmK-21" value="Поддерживает и дорабатывает" style="edgeLabel;html=1;align=center;verticalAlign=middle;resizable=0;points=[];" connectable="0" vertex="1" parent="N7hfLZ9WAsNdXvMFLSmK-20">
          <mxGeometry x="-0.8053" y="1" relative="1" as="geometry">
            <mxPoint x="-1" y="22" as="offset" />
          </mxGeometry>
        </mxCell>
        <mxCell id="N7hfLZ9WAsNdXvMFLSmK-23" value="" style="edgeStyle=orthogonalEdgeStyle;rounded=0;orthogonalLoop=1;jettySize=auto;html=1;entryX=1;entryY=0.5;entryDx=0;entryDy=0;" edge="1" parent="1" source="N7hfLZ9WAsNdXvMFLSmK-13" target="QBpDWXytgkbpgZtEVS22-1">
          <mxGeometry relative="1" as="geometry">
            <mxPoint x="556.5" y="-200.05999999999995" as="targetPoint" />
            <Array as="points">
              <mxPoint x="557" y="-259" />
              <mxPoint x="557" y="-259" />
            </Array>
          </mxGeometry>
        </mxCell>
        <mxCell id="N7hfLZ9WAsNdXvMFLSmK-24" value="Поддерживает и дорабатывает" style="edgeLabel;html=1;align=center;verticalAlign=middle;resizable=0;points=[];" connectable="0" vertex="1" parent="N7hfLZ9WAsNdXvMFLSmK-23">
          <mxGeometry x="-0.5294" y="1" relative="1" as="geometry">
            <mxPoint x="-31" y="-1" as="offset" />
          </mxGeometry>
        </mxCell>
        <mxCell id="N7hfLZ9WAsNdXvMFLSmK-26" value="" style="edgeStyle=orthogonalEdgeStyle;rounded=0;orthogonalLoop=1;jettySize=auto;html=1;" edge="1" parent="1" source="N7hfLZ9WAsNdXvMFLSmK-13">
          <mxGeometry relative="1" as="geometry">
            <mxPoint x="473" y="87" as="targetPoint" />
            <Array as="points">
              <mxPoint x="473" y="-224" />
            </Array>
          </mxGeometry>
        </mxCell>
        <mxCell id="N7hfLZ9WAsNdXvMFLSmK-27" value="Поддерживает и дорабатывает" style="edgeLabel;html=1;align=center;verticalAlign=middle;resizable=0;points=[];" connectable="0" vertex="1" parent="N7hfLZ9WAsNdXvMFLSmK-26">
          <mxGeometry x="-0.7521" relative="1" as="geometry">
            <mxPoint x="-32" y="-1" as="offset" />
          </mxGeometry>
        </mxCell>
        <mxCell id="N7hfLZ9WAsNdXvMFLSmK-33" value="" style="edgeStyle=orthogonalEdgeStyle;rounded=0;orthogonalLoop=1;jettySize=auto;html=1;entryX=0.5;entryY=0;entryDx=0;entryDy=0;" edge="1" parent="1" source="N7hfLZ9WAsNdXvMFLSmK-13" target="QBpDWXytgkbpgZtEVS22-3">
          <mxGeometry relative="1" as="geometry">
            <mxPoint x="689" y="100" as="targetPoint" />
            <Array as="points" />
          </mxGeometry>
        </mxCell>
        <mxCell id="N7hfLZ9WAsNdXvMFLSmK-34" value="Поддерживает и дорабатывает" style="edgeLabel;html=1;align=center;verticalAlign=middle;resizable=0;points=[];" connectable="0" vertex="1" parent="N7hfLZ9WAsNdXvMFLSmK-33">
          <mxGeometry x="-0.5435" y="-1" relative="1" as="geometry">
            <mxPoint x="1" as="offset" />
          </mxGeometry>
        </mxCell>
        <mxCell id="N7hfLZ9WAsNdXvMFLSmK-13" value="&lt;span style=&quot;background-color: light-dark(#ffffff, var(--ge-dark-color, #121212));&quot;&gt;&lt;font style=&quot;font-size: 13px;&quot;&gt;&lt;b&gt;Сотрудник IT-отдела&lt;/b&gt;&lt;/font&gt;&lt;/span&gt;&lt;div&gt;&lt;br style=&quot;background-color: rgb(255, 255, 255);&quot;&gt;&lt;/div&gt;" style="sketch=0;pointerEvents=1;shadow=0;dashed=0;html=1;strokeColor=none;fillColor=#505050;labelPosition=center;verticalLabelPosition=bottom;verticalAlign=top;outlineConnect=0;align=center;shape=mxgraph.office.users.administrator;" vertex="1" parent="1">
          <mxGeometry x="746" y="-291" width="91" height="88" as="geometry" />
        </mxCell>
        <mxCell id="N7hfLZ9WAsNdXvMFLSmK-14" value="&lt;span style=&quot;background-color: light-dark(#ffffff, var(--ge-dark-color, #121212));&quot;&gt;&lt;b&gt;&lt;font style=&quot;font-size: 13px;&quot;&gt;Сотрудник фронт-офиса&lt;/font&gt;&lt;/b&gt;&lt;/span&gt;&lt;div&gt;&lt;br style=&quot;background-color: rgb(255, 255, 255);&quot;&gt;&lt;/div&gt;" style="sketch=0;pointerEvents=1;shadow=0;dashed=0;html=1;strokeColor=none;fillColor=#505050;labelPosition=center;verticalLabelPosition=bottom;verticalAlign=top;outlineConnect=0;align=center;shape=mxgraph.office.users.communications;" vertex="1" parent="1">
          <mxGeometry x="20.5" y="74" width="93" height="102.5" as="geometry" />
        </mxCell>
        <mxCell id="N7hfLZ9WAsNdXvMFLSmK-16" value="&lt;span style=&quot;background-color: light-dark(#ffffff, var(--ge-dark-color, #121212));&quot;&gt;&lt;b&gt;&lt;font style=&quot;font-size: 13px;&quot;&gt;Клиент&lt;/font&gt;&lt;/b&gt;&lt;/span&gt;" style="sketch=0;pointerEvents=1;shadow=0;dashed=0;html=1;strokeColor=none;labelPosition=center;verticalLabelPosition=bottom;verticalAlign=top;outlineConnect=0;align=center;shape=mxgraph.office.users.user;fillColor=#2072B8;" vertex="1" parent="1">
          <mxGeometry x="-223" y="-304.56" width="81" height="91" as="geometry" />
        </mxCell>
        <mxCell id="N7hfLZ9WAsNdXvMFLSmK-17" value="&lt;span style=&quot;background-color: light-dark(#ffffff, var(--ge-dark-color, #121212));&quot;&gt;&lt;b&gt;&lt;font style=&quot;font-size: 13px;&quot;&gt;Сотрудник бек-офиса&lt;/font&gt;&lt;/b&gt;&lt;/span&gt;&lt;div&gt;&lt;span style=&quot;background-color: light-dark(#ffffff, var(--ge-dark-color, #121212));&quot;&gt;&lt;b&gt;&lt;font style=&quot;font-size: 13px;&quot;&gt;депозитов&lt;/font&gt;&lt;/b&gt;&lt;/span&gt;&lt;/div&gt;" style="sketch=0;pointerEvents=1;shadow=0;dashed=0;html=1;strokeColor=none;fillColor=#505050;labelPosition=center;verticalLabelPosition=bottom;verticalAlign=top;outlineConnect=0;align=center;shape=mxgraph.office.users.approver;" vertex="1" parent="1">
          <mxGeometry x="16.5" y="306" width="93" height="86" as="geometry" />
        </mxCell>
        <mxCell id="N7hfLZ9WAsNdXvMFLSmK-18" value="&lt;b&gt;&lt;font style=&quot;font-size: 13px;&quot;&gt;&lt;span style=&quot;background-color: rgb(255, 255, 255);&quot;&gt;Сотрудник бек-офиса&lt;/span&gt;&lt;br&gt;&lt;span style=&quot;background-color: rgb(255, 255, 255);&quot;&gt;кредитов&lt;/span&gt;&lt;/font&gt;&lt;/b&gt;" style="sketch=0;pointerEvents=1;shadow=0;dashed=0;html=1;strokeColor=none;fillColor=#505050;labelPosition=center;verticalLabelPosition=bottom;verticalAlign=top;outlineConnect=0;align=center;shape=mxgraph.office.users.approver;" vertex="1" parent="1">
          <mxGeometry x="14" y="536" width="93" height="86" as="geometry" />
        </mxCell>
      </root>
    </mxGraphModel>
  </diagram>
</mxfile>
